<svg data-v-0dd9719b="" version="1.0" xmlns="http://www.w3.org/2000/svg" xmlns:xlink="http://www.w3.org/1999/xlink" width="100%" height="100%" viewBox="0 0 340.000000 250.000000" preserveAspectRatio="xMidYMid meet" color-interpolation-filters="sRGB" style="margin: auto;"> <rect data-v-0dd9719b="" x="0" y="0" width="100%" height="100%" fill="#fff" fill-opacity="1" class="background"></rect> <rect data-v-0dd9719b="" x="0" y="0" width="100%" height="100%" fill="url(#watermark)" fill-opacity="1" class="watermarklayer"></rect> <g data-v-0dd9719b="" fill="#0b56a6" class="icon-text-wrapper icon-svg-group iconsvg" transform="translate(77.9800033569336,98.21213340759277)"><g class="iconsvg-imagesvg" transform="translate(0,0)"><g><rect fill="#0b56a6" fill-opacity="0" stroke-width="2" x="0" y="0" width="60" height="53.57573376432035" class="image-rect"></rect> <svg x="0" y="0" width="60" height="53.57573376432035" filtersec="colorsb163613806" class="image-svg-svg primary" style="overflow: visible;"><svg xmlns="http://www.w3.org/2000/svg" viewBox="0 -0.011434555053710938 424.6799621582031 379.20831298828125"><path d="M212.33 145.28a44.31 44.31 0 1 1-44.29 44.33 44.32 44.32 0 0 1 44.29-44.33z" fill="#da251d" fill-rule="evenodd"></path><path d="M307.2 25.47l-.05-.05c-14-8.06-37.41 1.17-64 22.66-29.28 23.64-60.88 61.71-87.94 108.54l-.07.14c-27 46.79-44.1 93.16-49.95 130.28-5.32 33.74-1.6 58.65 12.38 66.73 14 8.07 37.4-1.18 64-22.67 29.25-23.64 60.89-61.71 87.93-108.54 27-46.84 44.17-93.23 50-130.42 5.32-33.7 1.66-58.58-12.28-66.67zm-78.27 4.88c32.56-26.34 63.78-37 86.55-26.17h.27l2.72 1.56c23 13.28 30.27 46.66 23.47 89.87-6.14 39.06-23.69 87.23-51.25 135.57v.07l-1.57 2.72c-28.43 49.23-62 89.53-93.35 114.85-34 27.51-66.57 37.9-89.56 24.64-23-13.27-30.25-46.66-23.42-89.87 6.26-39.82 24.36-89 52.8-138.31v-.05c28.42-49.26 62-89.52 93.34-114.88z" fill="#0b56a6" fill-rule="evenodd"></path><path d="M401.86 189.61c0-16.17-19.69-31.82-51.49-44.08-35.08-13.48-83.86-21.85-138-21.85s-102.95 8.37-138 21.85c-31.88 12.26-51.58 27.91-51.58 44.08s19.68 31.81 51.5 44c35.07 13.5 83.85 21.85 138 21.85s103-8.35 138-21.85c31.8-12.23 51.49-27.89 51.49-44zm-43.39-65.28c40.91 15.76 66.21 38.72 66.21 65.28s-25.3 49.5-66.21 65.24c-37.65 14.49-89.34 23.45-146.14 23.45s-108.48-9-146.12-23.45C25.3 239.11 0 216.12 0 189.61s25.3-49.52 66.21-65.28c37.64-14.47 89.33-23.45 146.12-23.45s108.46 8.98 146.14 23.45z" fill="#0b56a6" fill-rule="evenodd"></path><path d="M307.1 353.77c14-8.08 17.7-33 12.38-66.73-5.84-37.12-23-83.49-49.93-130.28l-.09-.14c-27.05-46.83-58.66-84.87-87.91-108.54-26.57-21.47-50-30.72-64-22.66l-.82.49c-13.32 8.52-16.79 33.14-11.56 66.23 5.85 37.19 23 83.58 50 130.42 27 46.83 58.68 84.9 88 108.54 26.54 21.49 50 30.74 63.92 22.67zm34.84-70.18c6.8 43.21-.46 76.6-23.42 89.87s-55.58 2.89-89.61-24.64c-31.32-25.32-64.92-65.62-93.36-114.85l-1.57-2.72v-.07c-27.53-48.34-45.09-96.47-51.19-135.57-6.83-43.19.47-76.57 23.44-89.85.38-.22.77-.42 1.16-.63l1.59-.93h.24c22.78-10.8 54-.17 86.58 26.17 31.32 25.32 65 65.62 93.38 114.86v.05c28.39 49.29 46.5 98.49 52.76 138.31z" fill="#0b56a6" fill-rule="evenodd"></path></svg></svg> <!----></g></g> <g transform="translate(67,6.322866439819336)"><g data-gra="path-name" fill-rule="" class="tp-name iconsvg-namesvg"><g transform="scale(1)"><g><path d="M21.56-32.62L7.97-32.62 7.97-17.71 15.95-17.71Q17.05-17.71 17.68-17.96 18.32-18.21 18.98-18.7L18.98-18.7Q19.25-18.92 19.55-19.09 19.86-19.25 20.24-19.25L20.24-19.25Q20.9-19.25 21.37-18.78 21.84-18.32 21.84-17.66L21.84-17.66Q21.84-17 21.37-16.55 20.9-16.11 20.24-16.11L20.24-16.11 7.97-16.11 7.97 0.49 11.49 0.49 11.49 2.09 0.55 2.09 0.55 0.49 3.63 0.49 3.63-31.35Q3.63-31.57 3.49-31.73 3.35-31.9 3.14-31.9L3.14-31.9 0.71-31.9 0.71-33.27Q2.58-33.83 3.63-34.21 4.67-34.59 6.38-35.37L6.38-35.37Q6.6-35.48 6.76-35.48L6.76-35.48Q7.32-35.48 7.7-34.98L7.7-34.98Q7.81-34.92 8.28-34.59 8.74-34.27 9.35-34.27L9.35-34.27 17.27-34.21Q18.37-34.21 19-34.46 19.64-34.7 20.3-35.2L20.3-35.2Q20.57-35.42 20.87-35.59 21.18-35.75 21.56-35.75L21.56-35.75Q22.22-35.75 22.69-35.28 23.16-34.81 23.16-34.21L23.16-34.21Q23.16-33.55 22.69-33.08 22.22-32.62 21.56-32.62L21.56-32.62ZM29.37-29.48Q28.33-29.48 27.56-30.25 26.79-31.02 26.79-32.12L26.79-32.12Q26.79-33.22 27.56-33.99 28.33-34.76 29.37-34.76L29.37-34.76Q30.47-34.76 31.24-33.99 32.01-33.22 32.01-32.12L32.01-32.12Q32.01-31.02 31.24-30.25 30.47-29.48 29.37-29.48L29.37-29.48ZM31.68 0.49L35.2 0.49 35.2 2.09 24.26 2.09 24.26 0.49 27.72 0.49 27.72-19.14Q27.72-19.36 27.56-19.52 27.39-19.69 27.17-19.69L27.17-19.69 24.42-19.69 24.42-21.07Q26.07-21.56 27.34-22.03 28.6-22.5 30.09-23.16L30.09-23.16Q30.42-23.27 30.53-23.27L30.53-23.27Q30.97-23.27 31.32-22.91 31.68-22.55 31.68-22.05L31.68-22.05 31.68 0.49ZM54.84-38.01Q55.16-38.12 55.27-38.12L55.27-38.12Q55.72-38.12 56.07-37.76 56.43-37.4 56.43-36.91L56.43-36.91 56.43 1.59Q56.43 2.81 54.61 2.81L54.61 2.81Q53.95 2.81 53.3 2.67 52.64 2.53 52.47 2.48L52.47 2.48 52.47-0.33Q51.64 0.77 50.22 1.79 48.78 2.81 46.91 2.81L46.91 2.81Q44.16 2.81 41.72 0.99 39.27-0.82 37.78-4.04 36.3-7.26 36.3-11.28L36.3-11.28Q36.3-14.52 37.65-17.24 38.99-19.96 41.28-21.53 43.56-23.1 46.2-23.1L46.2-23.1Q49.34-23.1 52.47-20.63L52.47-20.63 52.47-34.05Q52.47-34.27 52.3-34.4 52.14-34.54 51.92-34.54L51.92-34.54 49.17-34.54 49.17-35.97Q50.98-36.47 52.17-36.91 53.35-37.34 54.84-38.01L54.84-38.01ZM47.24 0.6Q48.84 0.6 50.38-0.63 51.92-1.87 52.47-3.41L52.47-3.41 52.47-18.86Q50.44-19.96 48.4-19.96L48.4-19.96Q46.31-19.96 44.55-18.75 42.79-17.55 41.77-15.23 40.76-12.93 40.76-9.85L40.76-9.85Q40.76-4.95 42.41-2.17 44.05 0.6 47.24 0.6L47.24 0.6ZM68.7 2.81Q65.73 2.81 63.5 1.16 61.27-0.49 60.09-3.25 58.91-6 58.91-9.24L58.91-9.24Q58.91-12.1 59.76-14.63 60.61-17.16 62.15-19.03L62.15-19.03Q63.69-21.01 65.67-22.05 67.65-23.1 69.63-23.1L69.63-23.1Q71.72-23.1 73.48-21.89 75.24-20.68 76.26-18.67 77.28-16.66 77.28-14.46L77.28-14.46Q77.22-13.53 77.06-13.14 76.89-12.76 76.28-12.6L76.28-12.6Q75.52-12.43 71.34-12.13 67.16-11.82 62.92-11.66L62.92-11.66Q62.87-8.14 63.94-5.75 65.01-3.35 66.77-2.23 68.53-1.1 70.4-1.1L70.4-1.1Q73.43-1.1 76.23-3.9L76.23-3.9 77.06-2.64Q74.91 0.33 72.63 1.57 70.34 2.81 68.7 2.81L68.7 2.81ZM63.14-14.08Q68.75-14.08 71.72-14.24L71.72-14.24Q72.44-14.24 72.68-14.52 72.93-14.79 72.93-15.46L72.93-15.46Q72.93-17.71 71.67-19.36 70.4-21.01 68.42-21.01L68.42-21.01Q66.61-21.01 65.12-19.17 63.64-17.32 63.14-14.08L63.14-14.08ZM85.97 0.49L89.38 0.49 89.38 2.09 78.38 2.09 78.38 0.49 82 0.49 82-34.05Q82-34.27 81.84-34.4 81.67-34.54 81.45-34.54L81.45-34.54 78.7-34.54 78.7-35.97Q80.58-36.47 81.56-36.85 82.56-37.23 84.42-38.01L84.42-38.01Q84.65-38.12 84.87-38.12L84.87-38.12Q85.31-38.12 85.64-37.76 85.97-37.4 85.97-36.91L85.97-36.91 85.97 0.49ZM95.59-29.48Q94.55-29.48 93.77-30.25 93-31.02 93-32.12L93-32.12Q93-33.22 93.77-33.99 94.55-34.76 95.59-34.76L95.59-34.76Q96.69-34.76 97.46-33.99 98.23-33.22 98.23-32.12L98.23-32.12Q98.23-31.02 97.46-30.25 96.69-29.48 95.59-29.48L95.59-29.48ZM97.9 0.49L101.42 0.49 101.42 2.09 90.47 2.09 90.47 0.49 93.94 0.49 93.94-19.14Q93.94-19.36 93.77-19.52 93.61-19.69 93.39-19.69L93.39-19.69 90.64-19.69 90.64-21.07Q92.29-21.56 93.55-22.03 94.82-22.5 96.3-23.16L96.3-23.16Q96.63-23.27 96.75-23.27L96.75-23.27Q97.19-23.27 97.54-22.91 97.9-22.55 97.9-22.05L97.9-22.05 97.9 0.49ZM109.39 2.81Q107.97 2.81 106.64 2.45 105.33 2.09 104.5 1.71 103.67 1.32 103.45 1.21L103.45 1.21Q103.34-2.25 102.52-5.33L102.52-5.33 104-5.61Q105.6 0.88 110.16 0.88L110.16 0.88Q111.65 0.88 112.67-0.17 113.69-1.21 113.69-2.92L113.69-2.92Q113.69-4.73 112.75-5.86 111.81-6.99 109.67-8.2L109.67-8.2Q106.48-9.9 104.89-11.52 103.29-13.14 103.29-15.89L103.29-15.89Q103.29-18.98 105.46-21.04 107.64-23.1 111.1-23.1L111.1-23.1Q112.42-23.1 113.96-22.8 115.5-22.5 115.94-22.39L115.94-22.39Q115.89-19.14 116.71-16.17L116.71-16.17 115.22-15.79Q114.51-18.48 113.3-19.88 112.09-21.29 109.94-21.29L109.94-21.29Q108.63-21.29 107.75-20.27 106.86-19.25 106.86-17.66L106.86-17.66Q106.86-15.95 107.83-14.9 108.79-13.86 111.1-12.65L111.1-12.65Q114.67-10.78 116.13-9.19 117.59-7.59 117.59-5L117.59-5Q117.59-2.53 116.41-0.77 115.22 0.99 113.36 1.9 111.48 2.81 109.39 2.81L109.39 2.81Z" transform="translate(-0.550000011920929, 38.119998931884766)"></path></g> <!----> <!----> <!----> <!----> <!----> <!----> <!----></g></g> <!----></g></g><defs v-gra="od"></defs></svg>